<svg aria-hidden="true" style="position: absolute; width: 0; height: 0; overflow: hidden;" version="1.1" xmlns="http://www.w3.org/2000/svg" xmlns:xlink="http://www.w3.org/1999/xlink">
<defs>
<symbol id="icon-Star-10-1" viewBox="0 0 32 32">
<path fill="#ecd979" style="fill: var(--color1, #ecd979)" d="M15.434 0.333c0.115-0.197 0.325-0.328 0.566-0.328s0.451 0.13 0.565 0.325l0.002 0.003 1.84 3.203c0.115 0.197 0.325 0.327 0.566 0.327 0.138 0 0.265-0.043 0.371-0.115l-0.002 0.001 3.081-2.107c0.103-0.071 0.231-0.114 0.368-0.114 0.346 0 0.628 0.268 0.652 0.608l0 0.002 0.239 3.643c0.023 0.342 0.306 0.61 0.652 0.61 0.036 0 0.071-0.003 0.106-0.009l-0.004 0 3.69-0.585c0.031-0.005 0.067-0.008 0.103-0.008 0.361 0 0.653 0.292 0.653 0.653 0 0.090-0.018 0.175-0.051 0.253l0.002-0.004-1.386 3.359c-0.031 0.074-0.049 0.159-0.049 0.249 0 0.296 0.197 0.545 0.466 0.626l0.005 0.001 3.555 1.036c0.274 0.082 0.47 0.331 0.47 0.627 0 0.193-0.084 0.367-0.218 0.487l-0.001 0.001-2.731 2.433c-0.135 0.12-0.219 0.294-0.219 0.488s0.084 0.368 0.218 0.487l0.001 0.001 2.731 2.433c0.134 0.12 0.218 0.294 0.218 0.487 0 0.296-0.196 0.545-0.466 0.626l-0.005 0.001-3.555 1.036c-0.274 0.082-0.471 0.331-0.471 0.627 0 0.090 0.018 0.176 0.051 0.254l-0.002-0.004 1.386 3.359c0.031 0.074 0.050 0.16 0.050 0.25 0 0.361-0.292 0.653-0.653 0.653-0.036 0-0.072-0.003-0.106-0.009l0.004 0-3.69-0.585c-0.031-0.005-0.066-0.008-0.103-0.008-0.346 0-0.628 0.268-0.652 0.608l-0 0.002-0.239 3.643c-0.023 0.342-0.306 0.611-0.652 0.611-0.138 0-0.266-0.043-0.371-0.116l0.002 0.001-3.081-2.107c-0.103-0.071-0.231-0.114-0.368-0.114-0.241 0-0.451 0.13-0.564 0.324l-0.002 0.003-1.84 3.203c-0.115 0.197-0.325 0.328-0.566 0.328s-0.451-0.13-0.565-0.325l-0.002-0.003-1.84-3.203c-0.115-0.197-0.325-0.327-0.566-0.327-0.138 0-0.265 0.043-0.371 0.115l0.002-0.001-3.081 2.107c-0.103 0.071-0.231 0.114-0.368 0.114-0.346 0-0.628-0.268-0.652-0.608l-0-0.002-0.239-3.643c-0.023-0.342-0.306-0.61-0.652-0.61-0.036 0-0.071 0.003-0.106 0.009l0.004-0-3.69 0.584c-0.031 0.005-0.067 0.008-0.103 0.008-0.361 0-0.653-0.292-0.653-0.653 0-0.090 0.018-0.175 0.051-0.253l-0.002 0.004 1.386-3.359c0.031-0.074 0.049-0.159 0.049-0.249 0-0.296-0.197-0.545-0.466-0.626l-0.005-0.001-3.555-1.035c-0.274-0.082-0.471-0.331-0.471-0.627 0-0.194 0.084-0.368 0.218-0.487l0.001-0.001 2.731-2.433c0.135-0.12 0.219-0.294 0.219-0.488s-0.084-0.368-0.218-0.487l-0.001-0.001-2.731-2.433c-0.134-0.12-0.218-0.294-0.218-0.487 0-0.296 0.196-0.545 0.466-0.626l0.005-0.001 3.555-1.036c0.274-0.082 0.471-0.331 0.471-0.627 0-0.090-0.018-0.176-0.051-0.254l0.002 0.004-1.386-3.359c-0.031-0.074-0.050-0.16-0.050-0.25 0-0.361 0.292-0.653 0.653-0.653 0.036 0 0.072 0.003 0.106 0.009l-0.004-0 3.69 0.585c0.031 0.005 0.066 0.008 0.103 0.008 0.346 0 0.629-0.268 0.652-0.608l0-0.002 0.239-3.643c0.023-0.342 0.306-0.611 0.652-0.611 0.138 0 0.266 0.043 0.371 0.116l-0.002-0.001 3.080 2.107c0.103 0.071 0.231 0.114 0.368 0.114 0.241 0 0.451-0.13 0.564-0.324l0.002-0.003 1.84-3.204z"></path>
</symbol>
<symbol id="icon--1" viewBox="0 0 32 32">
<path fill="#ecd979" style="fill: var(--color1, #ecd979)" d="M27.765 17.956c-0.173-1.303-0.285-2.467-0.337-3.489-0.021-1.040 0.019-1.94 0.12-2.7l-25.295 14.603-1.197-2.072 25.295-14.604c-0.961-0.442-1.756-0.874-2.521-1.351l0.095 0.055c-1.126-0.735-2.047-1.389-2.943-2.073l0.118 0.086 1.52-0.877c3.208 1.349 6.143 2.024 8.803 2.023l0.513 0.888c-1.351 2.271-2.233 5.149-2.651 8.636l-1.519 0.876z"></path>
</symbol>
<symbol id="icon-Frame-60-1" viewBox="0 0 32 32">
<path fill="#fcf9f9" style="fill: var(--color2, #fcf9f9)" opacity="0.8" d="M24.24 6c-1.36-0.080-4.16-0.16-8.4-0.16h-0.56c-4.080 0-6.8 0.080-8.16 0.24-1.84 0.16-3.12 0.64-3.84 1.28-0.64 0.56-1.12 1.6-1.28 2.96-0.080 0.88-0.16 2.72-0.16 5.52v0.4c0 2.64 0.080 4.48 0.24 5.36 0.24 1.28 0.64 2.24 1.44 2.8 0.8 0.64 2.16 1.040 4.080 1.2 1.36 0.080 4.16 0.16 8.4 0.16h0.56c4.080 0 6.8-0.080 8.16-0.24 1.84-0.16 3.12-0.64 3.84-1.28 0.64-0.56 1.12-1.6 1.28-2.96 0.080-0.88 0.16-2.72 0.16-5.52v-0.4c0-2.64-0.080-4.48-0.24-5.36-0.24-1.28-0.64-2.24-1.44-2.8-0.8-0.64-2.16-1.040-4.080-1.2zM21.12 15.84l-8.8 5.28v-10.56l8.8 5.28z"></path>
</symbol>
<symbol id="icon-instagram-1" viewBox="0 0 32 32">
<path fill="#fcf9f9" style="fill: var(--color2, #fcf9f9)" opacity="0.8" d="M28.718 10.755c-0.016-1.134-0.233-2.212-0.617-3.207l0.021 0.063c-0.682-1.722-2.021-3.059-3.7-3.722l-0.044-0.015c-0.921-0.356-1.985-0.573-3.097-0.596l-0.010-0c-1.367-0.061-1.801-0.078-5.271-0.078-3.472 0-3.917 0-5.274 0.078-1.063 0.023-2.113 0.223-3.106 0.597-1.724 0.678-3.064 2.015-3.73 3.693l-0.015 0.044c-0.357 0.918-0.574 1.981-0.596 3.091l-0 0.009c-0.061 1.367-0.080 1.8-0.080 5.265 0 3.466 0 3.909 0.080 5.265 0.023 1.121 0.24 2.184 0.618 3.168l-0.022-0.064c0.682 1.721 2.021 3.058 3.7 3.721l0.044 0.015c0.917 0.369 1.98 0.6 3.091 0.637l0.015 0c1.369 0.062 1.802 0.080 5.274 0.080 3.471 0 3.917 0 5.274-0.080 1.122-0.023 2.187-0.239 3.172-0.616l-0.064 0.022c1.722-0.68 3.061-2.016 3.727-3.693l0.016-0.044c0.374-0.993 0.574-2.040 0.595-3.103 0.062-1.366 0.080-1.799 0.080-5.266-0.003-3.465-0.003-3.905-0.082-5.264zM15.989 22.531c-0.002 0-0.004 0-0.006 0-3.625 0-6.563-2.937-6.566-6.561v-0c0.002-3.624 2.94-6.561 6.565-6.561 0.002 0 0.005 0 0.007 0h-0c3.629 0 6.571 2.937 6.571 6.56-0.003 3.625-2.942 6.562-6.567 6.562-0.002 0-0.003 0-0.005 0h0zM22.823 10.696c-0.845 0-1.53-0.685-1.53-1.53s0.685-1.53 1.53-1.53v0c0.012-0 0.027-0.001 0.042-0.001 0.845 0 1.53 0.685 1.53 1.53s-0.685 1.53-1.53 1.53c-0.015 0-0.029-0-0.044-0.001l0.002 0z"></path>
<path fill="#fcf9f9" style="fill: var(--color2, #fcf9f9)" opacity="0.8" d="M15.992 19.976c2.211 0 4.004-1.793 4.004-4.004s-1.793-4.004-4.004-4.004v0c-2.211 0-4.004 1.793-4.004 4.004s1.793 4.004 4.004 4.004v0z"></path>
</symbol>
<symbol id="icon-facebook-1" viewBox="0 0 32 32">
<path fill="#fcf9f9" style="fill: var(--color2, #fcf9f9)" opacity="0.8" d="M19.52 4.64h0.96v3.6h-1.2c-0.48 0-0.96 0-1.2 0.24s-0.24 0.48-0.24 1.040v1.28h2.64v3.040h-2.64v13.2h-4.080v-13.28h-2.16v-3.040h2.16v-1.040c0-1.76 0.24-3.040 0.72-3.6 0.72-1.040 2.16-1.52 4.32-1.52 0.24 0.080 0.48 0.080 0.72 0.080z"></path>
</symbol>
<symbol id="icon-logo-1" viewBox="0 0 32 32">
<path fill="#ecd979" style="fill: var(--color1, #ecd979)" d="M31.956 30.15h-0.996v-1.011h0.998v1.011zM30.959 30.15h-0.999v-1.011h0.999v1.011zM26.967 30.15h-0.999v-1.011h0.998v1.011zM25.969 30.15h-0.998v-1.011h0.998v1.011zM24.971 30.15h-0.999v-1.011h0.999v1.011zM18.982 30.15h-0.998v-1.011h0.999v1.011zM12.994 30.15h-0.998v-1.011h0.998v1.011zM7.006 30.15h-0.998v-1.011h0.998v1.011zM6.008 30.15h-0.998v-1.011h0.997v1.011z"></path>
<path fill="#ecd979" style="fill: var(--color1, #ecd979)" d="M5.010 30.15h-0.999v-1.011h0.999v1.011zM1.018 30.15h-0.999v-1.011h0.999v1.011zM31.956 29.138h-0.996v-1.012h0.998v1.012zM27.965 29.138h-0.999v-1.012h0.999v1.012z"></path>
<path fill="#ecd979" style="fill: var(--color1, #ecd979)" d="M26.967 29.138h-0.999v-1.012h0.998v1.012zM25.969 29.138h-0.998v-1.012h0.998v1.012zM18.982 29.138h-0.998v-1.012h0.999v1.012z"></path>
<path fill="#ecd979" style="fill: var(--color1, #ecd979)" d="M17.985 29.138h-0.999v-1.012h0.998v1.012zM13.993 29.138h-0.999v-1.012h0.998v1.012z"></path>
<path fill="#ecd979" style="fill: var(--color1, #ecd979)" d="M12.994 29.138h-0.998v-1.012h0.998v1.012zM6.008 29.138h-0.998v-1.012h0.997v1.012z"></path>
<path fill="#ecd979" style="fill: var(--color1, #ecd979)" d="M5.010 29.138h-0.999v-1.012h0.999v1.012zM4.012 29.138h-0.998v-1.012h0.998v1.012zM28.963 28.127h-0.998v-1.012h0.998v1.011zM27.965 28.127h-0.999v-1.012h0.999v1.011z"></path>
<path fill="#ecd979" style="fill: var(--color1, #ecd979)" d="M26.967 28.127h-0.999v-1.012h0.998v1.011zM18.982 28.127h-0.998v-1.012h0.999v1.011z"></path>
<path fill="#ecd979" style="fill: var(--color1, #ecd979)" d="M17.985 28.127h-0.999v-1.012h0.998v1.011z"></path>
<path fill="#ecd979" style="fill: var(--color1, #ecd979)" d="M16.986 28.127h-0.998v-1.012h0.998v1.011zM14.991 28.127h-0.998v-1.012h0.998v1.011zM13.993 28.127h-0.999v-1.012h0.998v1.011z"></path>
<path fill="#ecd979" style="fill: var(--color1, #ecd979)" d="M12.994 28.127h-0.998v-1.012h0.998v1.011zM5.010 28.127h-0.999v-1.012h0.999v1.011zM4.012 28.127h-0.998v-1.012h0.998v1.011zM3.014 28.127h-0.998v-1.012h0.998v1.011zM29.961 27.115h-0.998v-1.013h0.998v1.012zM28.963 27.115h-0.998v-1.013h0.998v1.012zM27.965 27.115h-0.999v-1.013h0.999v1.012zM22.975 27.115h-0.998v-1.013h0.998v1.012zM21.977 27.115h-0.998v-1.013h0.998v1.012zM20.979 27.115h-0.999v-1.013h0.999v1.012zM17.985 27.115h-0.999v-1.013h0.998v1.012z"></path>
<path fill="#ecd979" style="fill: var(--color1, #ecd979)" d="M16.986 27.115h-0.998v-1.013h0.998v1.012zM14.991 27.115h-0.998v-1.013h0.998v1.012zM13.993 27.115h-0.999v-1.013h0.998v1.012zM10.999 27.115h-0.999v-1.013h0.999v1.012zM10 27.115h-0.998v-1.013h0.998v1.012zM9.002 27.115h-0.998v-1.013h0.998v1.012zM4.012 27.115h-0.998v-1.013h0.998v1.012zM3.014 27.115h-0.998v-1.013h0.998v1.012z"></path>
<path fill="#ecd979" style="fill: var(--color1, #ecd979)" d="M2.016 27.115h-0.999v-1.013h0.999v1.012zM30.959 26.103h-0.999v-1.012h0.999v1.012zM29.961 26.103h-0.998v-1.012h0.998v1.012zM28.963 26.103h-0.998v-1.012h0.998v1.012zM21.977 26.103h-0.998v-1.012h0.998v1.012zM20.979 26.103h-0.999v-1.012h0.999v1.012zM19.98 26.103h-0.998v-1.012h0.998v1.012zM16.986 26.103h-0.998v-1.012h0.998v1.012zM14.991 26.103h-0.998v-1.012h0.998v1.012zM11.996 26.103h-0.998v-1.012h0.998v1.012zM10.999 26.103h-0.999v-1.012h0.999v1.012zM10 26.103h-0.998v-1.012h0.998v1.012z"></path>
<path fill="#ecd979" style="fill: var(--color1, #ecd979)" d="M3.014 26.103h-0.998v-1.012h0.998v1.012z"></path>
<path fill="#ecd979" style="fill: var(--color1, #ecd979)" d="M2.016 26.103h-0.999v-1.012h0.999v1.012z"></path>
<path fill="#ecd979" style="fill: var(--color1, #ecd979)" d="M1.018 26.103h-0.999v-1.012h0.999v1.012zM30.959 25.091h-0.999v-1.012h0.999v1.012zM29.961 25.091h-0.998v-1.012h0.998v1.012zM20.979 25.091h-0.999v-1.012h0.999v1.012zM19.98 25.091h-0.998v-1.012h0.998v1.012z"></path>
<path fill="#ecd979" style="fill: var(--color1, #ecd979)" d="M18.982 25.091h-0.998v-1.012h0.999v1.012zM12.994 25.091h-0.998v-1.012h0.998v1.012zM11.996 25.091h-0.998v-1.012h0.998v1.012zM10.999 25.091h-0.999v-1.012h0.999v1.012zM2.016 25.091h-0.999v-1.012h0.999v1.012z"></path>
<path fill="#ecd979" style="fill: var(--color1, #ecd979)" d="M1.018 25.091h-0.999v-1.012h0.999v1.012zM30.959 24.079h-0.999v-1.012h0.999v1.012zM25.969 24.079h-0.998v-1.012h0.998v1.012zM16.986 24.079h-0.998v-1.012h0.998v1.012zM14.991 24.079h-0.998v-1.012h0.998v1.012zM6.008 24.079h-0.998v-1.012h0.997v1.012zM1.018 24.079h-0.999v-1.012h0.999v1.012zM25.969 23.067h-0.998v-1.011h0.998v1.011zM24.971 23.067h-0.999v-1.011h0.999v1.011zM17.985 23.067h-0.999v-1.011h0.998v1.011z"></path>
<path fill="#ecd979" style="fill: var(--color1, #ecd979)" d="M16.986 23.067h-0.998v-1.011h0.998v1.011zM14.991 23.067h-0.998v-1.011h0.998v1.011zM13.993 23.067h-0.999v-1.011h0.998v1.011zM7.006 23.067h-0.998v-1.011h0.998v1.011zM6.008 23.067h-0.998v-1.011h0.997v1.011zM25.969 22.055h-0.998v-1.012h0.998v1.012zM24.971 22.055h-0.999v-1.012h0.999v1.012zM23.972 22.055h-0.998v-1.012h0.998v1.012zM18.982 22.055h-0.998v-1.012h0.999v1.012z"></path>
<path fill="#ecd979" style="fill: var(--color1, #ecd979)" d="M17.985 22.055h-0.999v-1.012h0.998v1.012zM13.993 22.055h-0.999v-1.012h0.998v1.012z"></path>
<path fill="#ecd979" style="fill: var(--color1, #ecd979)" d="M12.994 22.055h-0.998v-1.012h0.998v1.012zM8.004 22.055h-0.999v-1.012h0.999v1.012zM7.006 22.055h-0.998v-1.012h0.998v1.012zM6.008 22.055h-0.998v-1.012h0.997v1.012zM24.971 21.044h-0.999v-1.012h0.999v1.011zM23.972 21.044h-0.998v-1.012h0.998v1.011zM19.98 21.044h-0.998v-1.012h0.998v1.011z"></path>
<path fill="#ecd979" style="fill: var(--color1, #ecd979)" d="M18.982 21.044h-0.998v-1.012h0.999v1.011zM12.994 21.044h-0.998v-1.012h0.998v1.011zM11.996 21.044h-0.998v-1.012h0.998v1.011zM8.004 21.044h-0.999v-1.012h0.999v1.011zM7.006 21.044h-0.998v-1.012h0.998v1.011zM28.963 20.032h-0.998v-1.012h0.998v1.012zM27.965 20.032h-0.999v-1.012h0.999v1.012z"></path>
<path fill="#ecd979" style="fill: var(--color1, #ecd979)" d="M26.967 20.032h-0.999v-1.012h0.998v1.012zM23.972 20.032h-0.998v-1.012h0.998v1.012zM20.979 20.032h-0.999v-1.012h0.999v1.012zM19.98 20.032h-0.998v-1.012h0.998v1.012zM11.996 20.032h-0.998v-1.012h0.998v1.012zM10.999 20.032h-0.999v-1.012h0.999v1.012zM8.004 20.032h-0.999v-1.012h0.999v1.012zM5.010 20.032h-0.999v-1.012h0.999v1.012zM4.012 20.032h-0.998v-1.012h0.998v1.012zM3.014 20.032h-0.998v-1.012h0.998v1.012zM31.956 19.020h-0.996v-1.012h0.998v1.012zM27.965 19.020h-0.999v-1.012h0.999v1.012z"></path>
<path fill="#ecd979" style="fill: var(--color1, #ecd979)" d="M26.967 19.020h-0.999v-1.012h0.998v1.012zM25.969 19.020h-0.998v-1.012h0.998v1.012zM21.977 19.020h-0.998v-1.012h0.998v1.012zM20.979 19.020h-0.999v-1.012h0.999v1.012zM10.999 19.020h-0.999v-1.012h0.999v1.012zM10 19.020h-0.998v-1.012h0.998v1.012zM6.008 19.020h-0.998v-1.012h0.997v1.012z"></path>
<path fill="#ecd979" style="fill: var(--color1, #ecd979)" d="M5.010 19.020h-0.999v-1.012h0.999v1.012zM4.012 19.020h-0.998v-1.012h0.998v1.012zM31.956 18.007h-0.996v-1.011h0.998v1.011zM30.959 18.007h-0.999v-1.011h0.999v1.011zM26.967 18.007h-0.999v-1.011h0.998v1.011zM25.969 18.007h-0.998v-1.011h0.998v1.011zM24.971 18.007h-0.999v-1.011h0.999v1.011zM22.975 18.007h-0.998v-1.011h0.998v1.011zM21.977 18.007h-0.998v-1.011h0.998v1.011zM15.988 18.007h-0.998v-1.011h0.998v1.011zM10 18.007h-0.998v-1.011h0.998v1.011zM9.002 18.007h-0.998v-1.011h0.998v1.011zM7.006 18.007h-0.998v-1.011h0.998v1.011zM6.008 18.007h-0.998v-1.011h0.997v1.011z"></path>
<path fill="#ecd979" style="fill: var(--color1, #ecd979)" d="M5.010 18.007h-0.999v-1.011h0.999v1.011zM0.998 16.996h-0.998v-1.012h0.998v1.012zM2.016 16.996h-0.999v-1.012h0.999v1.012zM0.998 18.007h-0.998v-1.011h0.998v1.011zM0.998 15.984h-0.998v-1.012h0.998v1.012zM31.956 16.996h-0.996v-1.012h0.998v1.012zM30.959 16.996h-0.999v-1.012h0.999v1.012zM29.961 16.996h-0.998v-1.012h0.998v1.012zM16.986 16.996h-0.998v-1.012h0.998v1.012zM15.988 16.996h-0.998v-1.012h0.998v1.012zM14.991 16.996h-0.998v-1.012h0.998v1.012zM31.956 15.984h-0.996v-1.012h0.998v1.012zM30.959 15.984h-0.999v-1.012h0.999v1.012zM26.967 15.984h-0.999v-1.012h0.998v1.012zM25.969 15.984h-0.998v-1.012h0.998v1.012zM24.971 15.984h-0.999v-1.012h0.999v1.012zM22.975 15.984h-0.998v-1.012h0.998v1.012zM21.977 15.984h-0.998v-1.012h0.998v1.012zM15.988 15.984h-0.998v-1.012h0.998v1.012zM10 15.984h-0.998v-1.012h0.998v1.012zM9.002 15.984h-0.998v-1.012h0.998v1.012zM7.006 15.984h-0.998v-1.012h0.998v1.012zM6.008 15.984h-0.998v-1.012h0.997v1.012z"></path>
<path fill="#ecd979" style="fill: var(--color1, #ecd979)" d="M5.010 15.984h-0.999v-1.012h0.999v1.012zM31.956 14.972h-0.996v-1.012h0.998v1.011zM27.965 14.972h-0.999v-1.012h0.999v1.011z"></path>
<path fill="#ecd979" style="fill: var(--color1, #ecd979)" d="M26.967 14.972h-0.999v-1.012h0.998v1.011zM25.969 14.972h-0.998v-1.012h0.998v1.011zM21.977 14.972h-0.998v-1.012h0.998v1.011zM20.979 14.972h-0.999v-1.012h0.999v1.011zM10.999 14.972h-0.999v-1.012h0.999v1.011zM10 14.972h-0.998v-1.012h0.998v1.011zM6.008 14.972h-0.998v-1.012h0.997v1.011z"></path>
<path fill="#ecd979" style="fill: var(--color1, #ecd979)" d="M5.010 14.972h-0.999v-1.012h0.999v1.011zM4.012 14.972h-0.998v-1.012h0.998v1.011zM28.963 13.961h-0.998v-1.012h0.998v1.012zM27.965 13.961h-0.999v-1.012h0.999v1.012z"></path>
<path fill="#ecd979" style="fill: var(--color1, #ecd979)" d="M26.967 13.961h-0.999v-1.012h0.998v1.012zM23.972 13.961h-0.998v-1.012h0.998v1.012zM20.979 13.961h-0.999v-1.012h0.999v1.012zM19.98 13.961h-0.998v-1.012h0.998v1.012zM11.996 13.961h-0.998v-1.012h0.998v1.012zM10.999 13.961h-0.999v-1.012h0.999v1.012zM8.004 13.961h-0.999v-1.012h0.999v1.012zM5.010 13.961h-0.999v-1.012h0.999v1.012zM4.012 13.961h-0.998v-1.012h0.998v1.012zM3.014 13.961h-0.998v-1.012h0.998v1.012zM24.971 12.948h-0.999v-1.012h0.999v1.012zM23.972 12.948h-0.998v-1.012h0.998v1.012zM19.98 12.948h-0.998v-1.012h0.998v1.012z"></path>
<path fill="#ecd979" style="fill: var(--color1, #ecd979)" d="M18.982 12.948h-0.998v-1.012h0.999v1.012zM12.994 12.948h-0.998v-1.012h0.998v1.012zM11.996 12.948h-0.998v-1.012h0.998v1.012zM8.004 12.948h-0.999v-1.012h0.999v1.012zM7.006 12.948h-0.998v-1.012h0.998v1.012zM25.969 11.937h-0.998v-1.012h0.998v1.012zM24.971 11.937h-0.999v-1.012h0.999v1.012zM23.972 11.937h-0.998v-1.012h0.998v1.012zM18.982 11.937h-0.998v-1.012h0.999v1.012z"></path>
<path fill="#ecd979" style="fill: var(--color1, #ecd979)" d="M17.985 11.937h-0.999v-1.012h0.998v1.012zM13.993 11.937h-0.999v-1.012h0.998v1.012z"></path>
<path fill="#ecd979" style="fill: var(--color1, #ecd979)" d="M12.994 11.937h-0.998v-1.012h0.998v1.012zM8.004 11.937h-0.999v-1.012h0.999v1.012zM7.006 11.937h-0.998v-1.012h0.998v1.012zM6.008 11.937h-0.998v-1.012h0.997v1.012zM25.969 10.925h-0.998v-1.012h0.998v1.012zM24.971 10.925h-0.999v-1.012h0.999v1.012zM17.985 10.925h-0.999v-1.012h0.998v1.012z"></path>
<path fill="#ecd979" style="fill: var(--color1, #ecd979)" d="M16.986 10.925h-0.998v-1.012h0.998v1.012zM14.991 10.925h-0.998v-1.012h0.998v1.012zM13.993 10.925h-0.999v-1.012h0.998v1.012zM7.006 10.925h-0.998v-1.012h0.998v1.012zM6.008 10.925h-0.998v-1.012h0.997v1.012zM25.969 9.913h-0.998v-1.011h0.998v1.011zM16.986 9.913h-0.998v-1.011h0.998v1.011zM14.991 9.913h-0.998v-1.011h0.998v1.011zM6.008 9.913h-0.998v-1.011h0.997v1.011zM30.959 8.902h-0.999v-1.013h0.999v1.012zM1.018 8.902h-0.999v-1.013h0.999v1.012z"></path>
<path fill="#ecd979" style="fill: var(--color1, #ecd979)" d="M30.959 7.889h-0.999v-1.012h0.999v1.012zM29.961 7.889h-0.998v-1.012h0.998v1.012zM20.979 7.889h-0.999v-1.012h0.999v1.012zM19.98 7.889h-0.998v-1.012h0.998v1.012z"></path>
<path fill="#ecd979" style="fill: var(--color1, #ecd979)" d="M18.982 7.889h-0.998v-1.012h0.999v1.012zM12.994 7.889h-0.998v-1.012h0.998v1.012zM11.996 7.889h-0.998v-1.012h0.998v1.012zM10.999 7.889h-0.999v-1.012h0.999v1.012zM2.016 7.889h-0.999v-1.012h0.999v1.012z"></path>
<path fill="#ecd979" style="fill: var(--color1, #ecd979)" d="M1.018 7.889h-0.999v-1.012h0.999v1.012zM30.959 6.878h-0.999v-1.012h0.999v1.012zM29.961 6.878h-0.998v-1.012h0.998v1.012zM28.963 6.878h-0.998v-1.012h0.998v1.012zM21.977 6.878h-0.998v-1.012h0.998v1.012zM20.979 6.878h-0.999v-1.012h0.999v1.012zM19.98 6.878h-0.998v-1.012h0.998v1.012zM16.986 6.878h-0.998v-1.012h0.998v1.012zM14.991 6.878h-0.998v-1.012h0.998v1.012zM11.996 6.878h-0.998v-1.012h0.998v1.012zM10.999 6.878h-0.999v-1.012h0.999v1.012zM10 6.878h-0.998v-1.012h0.998v1.012zM3.014 6.878h-0.998v-1.012h0.998v1.012z"></path>
<path fill="#ecd979" style="fill: var(--color1, #ecd979)" d="M2.016 6.878h-0.999v-1.012h0.999v1.012z"></path>
<path fill="#ecd979" style="fill: var(--color1, #ecd979)" d="M1.018 6.878h-0.999v-1.012h0.999v1.012zM29.961 5.865h-0.998v-1.012h0.998v1.012zM28.963 5.865h-0.998v-1.012h0.998v1.012zM27.965 5.865h-0.999v-1.012h0.999v1.012zM22.975 5.865h-0.998v-1.012h0.998v1.012zM21.977 5.865h-0.998v-1.012h0.998v1.012zM20.979 5.865h-0.999v-1.012h0.999v1.012zM17.985 5.865h-0.999v-1.012h0.998v1.012z"></path>
<path fill="#ecd979" style="fill: var(--color1, #ecd979)" d="M16.986 5.865h-0.998v-1.012h0.998v1.012zM14.991 5.865h-0.998v-1.012h0.998v1.012zM13.993 5.865h-0.999v-1.012h0.998v1.012zM10.999 5.865h-0.999v-1.012h0.999v1.012zM10 5.865h-0.998v-1.012h0.998v1.012zM9.002 5.865h-0.998v-1.012h0.998v1.012zM4.012 5.865h-0.998v-1.012h0.998v1.012zM3.014 5.865h-0.998v-1.012h0.998v1.012z"></path>
<path fill="#ecd979" style="fill: var(--color1, #ecd979)" d="M2.016 5.865h-0.999v-1.012h0.999v1.012zM28.963 4.854h-0.998v-1.012h0.998v1.011zM27.965 4.854h-0.999v-1.012h0.999v1.011z"></path>
<path fill="#ecd979" style="fill: var(--color1, #ecd979)" d="M26.967 4.854h-0.999v-1.012h0.998v1.011zM18.982 4.854h-0.998v-1.012h0.999v1.011z"></path>
<path fill="#ecd979" style="fill: var(--color1, #ecd979)" d="M17.985 4.854h-0.999v-1.012h0.998v1.011z"></path>
<path fill="#ecd979" style="fill: var(--color1, #ecd979)" d="M16.986 4.854h-0.998v-1.012h0.998v1.011zM14.991 4.854h-0.998v-1.012h0.998v1.011zM13.993 4.854h-0.999v-1.012h0.998v1.011z"></path>
<path fill="#ecd979" style="fill: var(--color1, #ecd979)" d="M12.994 4.854h-0.998v-1.012h0.998v1.011zM5.010 4.854h-0.999v-1.012h0.999v1.011zM4.012 4.854h-0.998v-1.012h0.998v1.011zM3.014 4.854h-0.998v-1.012h0.998v1.011zM31.956 3.842h-0.996v-1.013h0.998v1.012zM27.965 3.842h-0.999v-1.013h0.999v1.012z"></path>
<path fill="#ecd979" style="fill: var(--color1, #ecd979)" d="M26.967 3.842h-0.999v-1.013h0.998v1.012zM25.969 3.842h-0.998v-1.013h0.998v1.012zM18.982 3.842h-0.998v-1.013h0.999v1.012z"></path>
<path fill="#ecd979" style="fill: var(--color1, #ecd979)" d="M17.985 3.842h-0.999v-1.013h0.998v1.012zM13.993 3.842h-0.999v-1.013h0.998v1.012z"></path>
<path fill="#ecd979" style="fill: var(--color1, #ecd979)" d="M12.994 3.842h-0.998v-1.013h0.998v1.012zM6.008 3.842h-0.998v-1.013h0.997v1.012z"></path>
<path fill="#ecd979" style="fill: var(--color1, #ecd979)" d="M5.010 3.842h-0.999v-1.013h0.999v1.012zM4.012 3.842h-0.998v-1.013h0.998v1.012zM31.956 2.83h-0.996v-1.012h0.998v1.012zM30.959 2.83h-0.999v-1.012h0.999v1.012zM26.967 2.83h-0.999v-1.012h0.998v1.012zM25.969 2.83h-0.998v-1.012h0.998v1.012zM24.971 2.83h-0.999v-1.012h0.999v1.012zM18.982 2.83h-0.998v-1.012h0.999v1.012zM12.994 2.83h-0.998v-1.012h0.998v1.012zM7.006 2.83h-0.998v-1.012h0.998v1.012z"></path>
<path fill="#ecd979" style="fill: var(--color1, #ecd979)" d="M6.008 2.83h-0.998v-1.012h0.997v1.012z"></path>
<path fill="#ecd979" style="fill: var(--color1, #ecd979)" d="M5.010 2.83h-0.999v-1.012h0.999v1.012zM1.018 2.83h-0.999v-1.012h0.999v1.012z"></path>
<symbol id="icon-3-1" viewBox="0 0 48 32">
<path fill="#ecd979" style="fill: var(--color1, #ecd979)" d="M40.166 18.934c-0.26-1.954-0.43-3.7-0.506-5.234-0.034-1.56 0.026-2.91 0.178-4.050l-37.94 21.904-1.798-3.108 37.942-21.906c-1.441-0.662-2.635-1.311-3.782-2.027l0.142 0.083c-1.689-1.102-3.069-2.083-4.413-3.11l0.177 0.129 2.278-1.316c4.812 2.024 9.214 3.036 13.204 3.034l0.77 1.332c-2.024 3.406-3.35 7.724-3.974 12.954l-2.28 1.314z"></path>
</symbol>
</symbol>
</defs>
</svg>
